<?xml version="1.0" encoding="utf-8"?>
<!-- Generator: Adobe Illustrator 13.0.0, SVG Export Plug-In . SVG Version: 6.00 Build 14948)  -->
<!DOCTYPE svg PUBLIC "-//W3C//DTD SVG 1.0//EN" "http://www.w3.org/TR/2001/REC-SVG-20010904/DTD/svg10.dtd">
<svg version="1.0" id="svg2" xmlns:svg="http://www.w3.org/2000/svg"
	 xmlns="http://www.w3.org/2000/svg" xmlns:xlink="http://www.w3.org/1999/xlink" x="0px" y="0px" width="96px" height="38px"
	 viewBox="0 0 96 38" enable-background="new 0 0 96 38" xml:space="preserve">
<g id="layer1" transform="translate(9.9561672,-303.29355)">
	<g id="g8099" transform="translate(1.0651632,22.02073)">
		<path id="path6154" fill="#CCCCCC" stroke="#CCCCCC" stroke-width="0.1" d="M5.105,305.945l7.75-8.936l52.297-0.006l4.938,8.934
			L5.105,305.945z"/>
		<path id="path3194" fill="#000066" stroke="#000066" stroke-width="0.1" stroke-linecap="round" stroke-linejoin="round" d="
			M6.582,288.772c0,1.644-1.332,2.977-2.976,2.977c-1.644,0-2.977-1.332-2.977-2.976c0,0,0-0.001,0-0.001
			c-0.001-1.644,1.331-2.977,2.975-2.977c1.644,0,2.977,1.332,2.977,2.975C6.582,288.771,6.582,288.772,6.582,288.772z"/>
		<path id="path3196" fill="#003300" stroke="#003300" stroke-width="0.1" stroke-linecap="round" stroke-linejoin="round" d="
			M22.609,285.567c0,1.644-1.332,2.977-2.976,2.977c-1.644,0-2.977-1.332-2.977-2.976c0,0,0-0.001,0-0.001
			c0-1.644,1.332-2.977,2.975-2.978c1.644,0,2.977,1.332,2.978,2.976C22.609,285.566,22.609,285.566,22.609,285.567z"/>
		<path id="path3198" fill="#660000" stroke="#660000" stroke-width="0.1" stroke-linecap="round" stroke-linejoin="round" d="
			M41.496,285.682c0,1.644-1.332,2.977-2.976,2.977s-2.977-1.332-2.977-2.976c0,0,0-0.001,0-0.001c0-1.644,1.332-2.976,2.976-2.977
			c1.643,0,2.977,1.332,2.977,2.975C41.496,285.681,41.496,285.681,41.496,285.682z"/>
		<path id="path3200" fill="#000033" stroke="#000033" stroke-width="0.1" stroke-linecap="round" stroke-linejoin="round" d="
			M62.274,285.796c0,1.644-1.332,2.977-2.977,2.978c-1.643,0-2.977-1.332-2.977-2.976c0,0,0-0.001,0-0.002
			c0-1.644,1.332-2.976,2.976-2.977c1.644,0,2.977,1.332,2.978,2.976C62.274,285.795,62.274,285.795,62.274,285.796z"/>
		<path id="path3202" stroke="#000000" stroke-width="0.1" stroke-linecap="round" stroke-linejoin="round" d="M78.414,288.314
			c0,1.644-1.332,2.977-2.977,2.977c-1.643,0-2.977-1.332-2.977-2.975c0-0.001,0-0.001,0-0.002c0-1.644,1.332-2.977,2.976-2.977
			s2.977,1.332,2.978,2.976C78.414,288.313,78.414,288.314,78.414,288.314z"/>
		<path id="path3204" fill="#003300" stroke="#003300" stroke-width="0.1" d="M19.289,287.341v2.519h-3.263l-2.027,7.033
			l7.694,3.327l-5.266-4.293l0.629-1.03v1.531l0.639,0.527h4.477v-2.703l2.031,2.703l1.249-0.012l-2.04-7.074l-3.265-0.01v-2.519"/>
		<path id="path4184" stroke="#000000" stroke-width="0.1" d="M75.151,290.021v2.519h-3.262c-1.298,3.222-2.418,8.107-3.895,9.665
			c0,0,1.225-0.123,2.225-1.123c1-1.001,1.844-3.22,2.594-4.142v5.517l-2.723,10.191v2.047l5.289-9.627l6.34,10.98l-3.516-13.123
			v-5.985l5.427,8.815l-4.358-13.216H76.01v-2.519"/>
		<path id="path4186" fill="#660000" stroke="#660000" stroke-width="0.1" d="M38.934,287.435v2.519h3.263l2.027,7.033l-5.663,3.202
			l3.234-4.168l-0.629-1.03v1.848l-0.078,0.099l-4.786-0.006l-0.246-0.254v-1.688l-0.629,1.03l2.547,2.637l-4.975-1.671l2.027-7.033
			h3.263v-2.519"/>
		<path id="path4195" fill="#000033" stroke="#000033" stroke-width="0.1" d="M59.809,287.435v2.519h3.263l2.027,7.033l-5.663,3.202
			l3.234-4.168l-0.629-1.03v1.848l-0.078,0.099l-5.042,0.006l0.011-1.953l-1.817,1.655l-6.703-4.426l5.649,1.329l1.84-3.596h3.264
			v-2.519"/>
		<path id="path5170" fill="#999999" stroke="#999999" stroke-width="0.1" d="M70.089,305.937l0.003,9.398l-2.619,2.619H64.17
			v-5.027H11.115v2.916l-2.11,2.111h-3.9v-12.01L70.089,305.937z"/>
		<path id="path6141" fill="#000066" stroke="#000066" stroke-width="0.1" d="M6.516,304.191v-5.866
			c3.845,4.169,7.973,2.874,7.973,2.874c-5.423-1.619-7.932-8.297-7.932-8.297h-2.59v-2.955H3.238v2.955h-6.759
			c0,0-1.012,0.243-2.469-0.891c-1.457-1.133-3.683-3.197-3.683-3.197s0.769,2.671,3.845,5.019c0,0,1.417,1.173,2.995,1.173
			s3.683,0,3.683,0v7.771l-3.885,14.004l6.718-10.686l1.345,2.934l-0.011-3.121L6.516,304.191z"/>
	</g>
</g>
</svg>
